<svg width="52" height="37" viewBox="0 0 52 37" fill="none" xmlns="http://www.w3.org/2000/svg">
<path d="M43.3958 3.31115C40.1493 1.90738 36.6679 0.873152 33.0279 0.280805C32.9616 0.269373 32.8954 0.297942 32.8613 0.355083C32.4135 1.10551 31.9176 2.08451 31.5703 2.854C27.6553 2.30166 23.7603 2.30166 19.9256 2.854C19.5782 2.06741 19.0643 1.10551 18.6145 0.355083C18.5804 0.299849 18.5141 0.271279 18.4479 0.280805C14.8099 0.871259 11.3285 1.90549 8.08003 3.31115C8.05191 3.32257 8.02781 3.34164 8.01181 3.36638C1.4084 12.6631 -0.40055 21.7313 0.48686 30.6871C0.490875 30.7309 0.516975 30.7728 0.553115 30.7995C4.90985 33.8145 9.1301 35.645 13.272 36.8582C13.3383 36.8773 13.4085 36.8544 13.4507 36.803C14.4304 35.5421 15.3038 34.2127 16.0526 32.8146C16.0968 32.7327 16.0547 32.6356 15.9643 32.6032C14.579 32.108 13.2599 31.5042 11.991 30.8185C11.8907 30.7633 11.8826 30.628 11.975 30.5632C12.242 30.3747 12.5091 30.1785 12.7641 29.9804C12.8102 29.9443 12.8745 29.9366 12.9287 29.9595C21.2647 33.546 30.2894 33.546 38.527 29.9595C38.5812 29.9347 38.6455 29.9424 38.6937 29.9785C38.9487 30.1766 39.2157 30.3747 39.4847 30.5632C39.5771 30.628 39.571 30.7633 39.4707 30.8185C38.2018 31.5175 36.8827 32.108 35.4954 32.6013C35.4051 32.6337 35.3649 32.7327 35.4091 32.8146C36.174 34.2107 37.0473 35.5402 38.009 36.8011C38.0492 36.8544 38.1214 36.8773 38.1877 36.8582C42.3497 35.645 46.5699 33.8145 50.9267 30.7995C50.9648 30.7728 50.9889 30.7328 50.9929 30.689C52.055 20.3351 49.2141 11.3413 43.462 3.36827C43.4479 3.34164 43.4239 3.32257 43.3958 3.31115ZM17.2975 25.234C14.7878 25.234 12.7199 23.0627 12.7199 20.3961C12.7199 17.7295 14.7477 15.5582 17.2975 15.5582C19.8673 15.5582 21.9152 17.7486 21.875 20.3961C21.875 23.0627 19.8472 25.234 17.2975 25.234ZM34.2225 25.234C31.7129 25.234 29.6449 23.0627 29.6449 20.3961C29.6449 17.7295 31.6727 15.5582 34.2225 15.5582C36.7924 15.5582 38.8402 17.7486 38.8001 20.3961C38.8001 23.0627 36.7924 25.234 34.2225 25.234Z" fill="black"/>
</svg>
