<svg width="52" height="48" viewBox="0 0 52 48" fill="none" xmlns="http://www.w3.org/2000/svg">
<path d="M25.8058 4.32187C32.6106 4.32187 33.4164 4.35 36.0925 4.4625C38.5796 4.56562 39.9226 4.95938 40.818 5.2875C42.0019 5.71875 42.8574 6.24375 43.7428 7.07812C44.6382 7.92188 45.1853 8.71875 45.643 9.83438C45.9912 10.6781 46.409 11.9531 46.5184 14.2875C46.6378 16.8187 46.6677 17.5781 46.6677 23.9813C46.6677 30.3938 46.6378 31.1531 46.5184 33.675C46.409 36.0188 45.9912 37.2844 45.643 38.1281C45.1853 39.2438 44.6282 40.05 43.7428 40.8844C42.8475 41.7281 42.0019 42.2438 40.818 42.675C39.9226 43.0031 38.5697 43.3969 36.0925 43.5C33.4064 43.6125 32.6006 43.6406 25.8058 43.6406C19.0011 43.6406 18.1953 43.6125 15.5192 43.5C13.0321 43.3969 11.689 43.0031 10.7937 42.675C9.60981 42.2438 8.75425 41.7188 7.86884 40.8844C6.97348 40.0406 6.42632 39.2438 5.96869 38.1281C5.6205 37.2844 5.20267 36.0094 5.09323 33.675C4.97385 31.1438 4.94401 30.3844 4.94401 23.9813C4.94401 17.5688 4.97385 16.8094 5.09323 14.2875C5.20267 11.9437 5.6205 10.6781 5.96869 9.83438C6.42632 8.71875 6.98343 7.9125 7.86884 7.07812C8.7642 6.23438 9.60981 5.71875 10.7937 5.2875C11.689 4.95938 13.042 4.56562 15.5192 4.4625C18.1953 4.35 19.0011 4.32187 25.8058 4.32187ZM25.8058 0C18.8917 0 18.0262 0.028125 15.3103 0.140625C12.6043 0.253125 10.7439 0.665625 9.13229 1.25625C7.45101 1.875 6.02838 2.69062 4.61571 4.03125C3.19309 5.3625 2.32757 6.70313 1.67098 8.27813C1.04423 9.80625 0.606498 11.55 0.487117 14.1C0.367736 16.6687 0.337891 17.4844 0.337891 24C0.337891 30.5156 0.367736 31.3313 0.487117 33.8906C0.606498 36.4406 1.04423 38.1938 1.67098 39.7125C2.32757 41.2969 3.19309 42.6375 4.61571 43.9688C6.02838 45.3 7.45101 46.125 9.12234 46.7344C10.7439 47.325 12.5943 47.7375 15.3003 47.85C18.0162 47.9625 18.8817 47.9906 25.7959 47.9906C32.71 47.9906 33.5755 47.9625 36.2915 47.85C38.9974 47.7375 40.8578 47.325 42.4694 46.7344C44.1408 46.125 45.5634 45.3 46.9761 43.9688C48.3887 42.6375 49.2642 41.2969 49.9108 39.7219C50.5376 38.1938 50.9753 36.45 51.0947 33.9C51.2141 31.3406 51.2439 30.525 51.2439 24.0094C51.2439 17.4938 51.2141 16.6781 51.0947 14.1188C50.9753 11.5688 50.5376 9.81563 49.9108 8.29688C49.2841 6.70312 48.4186 5.3625 46.996 4.03125C45.5833 2.7 44.1607 1.875 42.4893 1.26562C40.8677 0.675 39.0173 0.2625 36.3114 0.15C33.5855 0.028125 32.72 0 25.8058 0Z" fill="black"/>
<path d="M25.8058 11.6719C18.5833 11.6719 12.7236 17.1938 12.7236 24C12.7236 30.8062 18.5833 36.3281 25.8058 36.3281C33.0283 36.3281 38.888 30.8062 38.888 24C38.888 17.1938 33.0283 11.6719 25.8058 11.6719ZM25.8058 31.9969C21.1201 31.9969 17.3198 28.4156 17.3198 24C17.3198 19.5844 21.1201 16.0031 25.8058 16.0031C30.4915 16.0031 34.2918 19.5844 34.2918 24C34.2918 28.4156 30.4915 31.9969 25.8058 31.9969Z" fill="black"/>
<path d="M42.4599 11.1843C42.4599 12.778 41.087 14.0624 39.4057 14.0624C37.7145 14.0624 36.3516 12.7687 36.3516 11.1843C36.3516 9.59053 37.7244 8.30615 39.4057 8.30615C41.087 8.30615 42.4599 9.5999 42.4599 11.1843Z" fill="black"/>
</svg>
