<svg width="38" height="32" viewBox="0 0 38 32" fill="none" xmlns="http://www.w3.org/2000/svg">
<path d="M0 3.2C0 1.43269 1.06332 0 2.375 0H35.625C36.9367 0 38 1.43269 38 3.2C38 4.96731 36.9367 6.4 35.625 6.4H19H2.375C1.06332 6.4 0 4.96731 0 3.2Z" fill="white"/>
<path d="M0 16C0 14.2327 1.06332 12.8 2.375 12.8H35.625C36.9367 12.8 38 14.2327 38 16C38 17.7673 36.9367 19.2 35.625 19.2H2.375C1.06332 19.2 0 17.7673 0 16Z" fill="white"/>
<path d="M0 28.8C0 27.0327 1.06332 25.6 2.375 25.6H35.625C36.9367 25.6 38 27.0327 38 28.8C38 30.5673 36.9367 32 35.625 32H2.375C1.06332 32 0 30.5673 0 28.8Z" fill="white"/>
</svg>
