<svg width="26" height="27" viewBox="0 0 26 27" fill="none" xmlns="http://www.w3.org/2000/svg">
<path d="M9.05422 1.3464C5.92222 2.4192 3.25102 4.7664 1.76782 7.7256C1.24942 8.748 0.875016 9.8352 0.651816 10.9584C0.0830158 13.752 0.479016 16.7256 1.76782 19.2744C2.60302 20.9376 3.80542 22.4136 5.25982 23.5656C6.63502 24.66 8.23342 25.4664 9.93262 25.92C12.071 26.496 14.3534 26.4816 16.5134 25.992C18.4646 25.5456 20.3078 24.6096 21.7766 23.256C23.3318 21.8232 24.4406 19.944 25.031 17.9208C25.6718 15.7104 25.7582 13.356 25.355 11.0952C21.323 11.0952 17.291 11.0952 13.2518 11.0952C13.2518 12.7656 13.2518 14.4432 13.2518 16.1136C15.5846 16.1136 17.9246 16.1136 20.2574 16.1136C19.9838 17.7192 19.0334 19.1808 17.6798 20.088C16.8302 20.6568 15.8582 21.0312 14.8502 21.204C13.835 21.3768 12.791 21.3984 11.783 21.1968C10.7534 20.9952 9.77422 20.5632 8.91742 19.9584C7.54942 19.0008 6.50542 17.5896 5.97262 16.0128C5.42542 14.4072 5.41822 12.6144 5.97262 11.0088C6.35422 9.8784 6.99502 8.8272 7.83742 7.9776C8.87422 6.912 10.2206 6.156 11.675 5.8464C12.9206 5.58 14.231 5.6304 15.4478 5.9976C16.4846 6.3144 17.435 6.876 18.2198 7.6248C19.0118 6.84 19.7966 6.048 20.5886 5.2632C20.999 4.8384 21.4382 4.4352 21.8414 3.996C20.6462 2.8872 19.235 1.9944 17.7014 1.4328C14.951 0.4032 11.8334 0.3816 9.05422 1.3464Z" fill="white"/>
<path d="M9.05459 1.3464C11.8338 0.381599 14.9514 0.403199 17.7162 1.4256C19.2498 1.9872 20.6538 2.88 21.8562 3.9888C21.453 4.4208 21.021 4.8312 20.6034 5.256C19.8114 6.0408 19.0266 6.8328 18.2346 7.6176C17.4498 6.8688 16.4994 6.3 15.4626 5.9904C14.2458 5.6232 12.9354 5.5728 11.6898 5.8392C10.2354 6.1488 8.88899 6.912 7.85219 7.9704C7.00979 8.82 6.36899 9.8712 5.98739 11.0016C4.58339 9.9144 3.17939 8.82 1.77539 7.7328C3.25139 4.7664 5.92259 2.4192 9.05459 1.3464Z" fill="#E94435"/>
<path d="M0.651816 10.9584C0.875016 9.8352 1.25662 8.748 1.76782 7.7256C3.17182 8.8128 4.57582 9.9072 5.97982 10.9944C5.42542 12.6 5.43262 14.3928 5.97982 15.9984C4.57582 17.0856 3.17182 18.18 1.76782 19.2672C0.479016 16.7328 0.0830158 13.752 0.651816 10.9584Z" fill="#F8BB15"/>
<path d="M13.259 11.088C17.291 11.088 21.323 11.088 25.3622 11.088C25.7654 13.3488 25.679 15.7032 25.0382 17.9136C24.4478 19.9368 23.339 21.8232 21.7838 23.2488C20.423 22.1904 19.055 21.132 17.7014 20.0736C19.055 19.1736 20.0054 17.7048 20.279 16.0992C17.9462 16.0992 15.6062 16.0992 13.2734 16.0992C13.2518 14.436 13.259 12.7656 13.259 11.088Z" fill="#547DBE"/>
<path d="M1.76758 19.2744C3.17158 18.1872 4.57558 17.0928 5.97958 16.0056C6.51238 17.5896 7.55638 18.9936 8.92438 19.9512C9.78118 20.556 10.7604 20.9808 11.79 21.1896C12.798 21.3912 13.8492 21.3696 14.8572 21.1968C15.8652 21.024 16.8372 20.6496 17.6868 20.0808C19.0476 21.1392 20.4156 22.1976 21.7692 23.256C20.3004 24.6168 18.4572 25.5456 16.506 25.992C14.3532 26.4816 12.0708 26.496 9.92518 25.92C8.22598 25.4664 6.62758 24.66 5.25238 23.5656C3.80518 22.4064 2.60278 20.9304 1.76758 19.2744Z" fill="#34A751"/>
</svg>
