<svg width="52" height="40" viewBox="0 0 52 40" fill="none" xmlns="http://www.w3.org/2000/svg">
<path d="M16.3315 39.5001C35.5479 39.5001 46.0614 24.4935 46.0614 11.4838C46.0614 11.062 46.0514 10.6307 46.0315 10.2088C48.0767 8.81504 49.8417 7.08863 51.2435 5.11072C49.3388 5.90932 47.3164 6.43089 45.2456 6.65759C47.426 5.42594 49.0586 3.49107 49.8408 1.21166C47.7895 2.35724 45.5463 3.16535 43.2072 3.60134C41.6311 2.02324 39.5473 0.978355 37.2779 0.628224C35.0085 0.278093 32.6799 0.642223 30.6521 1.66431C28.6243 2.68641 27.0103 4.30953 26.0596 6.28275C25.1089 8.25596 24.8745 10.4694 25.3925 12.5807C21.2391 12.3843 17.1758 11.3675 13.466 9.59632C9.75628 7.82511 6.48294 5.339 3.85821 2.29916C2.52418 4.46661 2.11596 7.03141 2.71653 9.4723C3.31709 11.9132 4.88137 14.047 7.09144 15.4401C5.43225 15.3905 3.80941 14.9695 2.35699 14.212V14.3338C2.3555 16.6084 3.18995 18.8133 4.71847 20.5737C6.247 22.334 8.37528 23.5412 10.7415 23.9901C9.20454 24.3864 7.59141 24.4441 6.02696 24.1588C6.69467 26.115 7.99379 27.8259 9.743 29.0528C11.4922 30.2797 13.6043 30.9613 15.7844 31.0026C12.0832 33.7423 7.51117 35.2284 2.80467 35.2213C1.97001 35.2201 1.13617 35.1719 0.307617 35.077C5.08892 37.9676 10.6509 39.5029 16.3315 39.5001Z" fill="black"/>
</svg>
